# xmcd
#
# Track frame offsets: 
#        150
#        14884
#        26610
#        41655
#        55127
#        71064
#        84747
#        96970
#        111472
#        124117
#        152768
#        164790
#        177145
#        189680
#        210796
#        235786
#        257862
#        272364
#        284182
#        293912
#        306687
#
# Disc length: 4234 seconds
#
# Revision: 0
# Processed by: cddbd v1.4PL0 Copyright (c) Steve Scherf et al.
# Submitted via: ExactAudioCopy v0.95a4
#
DISCID=47108815
DTITLE=Various Artist - The Bebop Singers
DYEAR=1900
DGENRE=Blues
TTITLE0=King Pleasure And Betty Carter - Red Top
TTITLE1=King Pleasure - Jumpin' With Symphony Sid
TTITLE2=King Pleasure, Eddie Jefferson, Jon Hendricks - Don't Get Scar
TTITLE2=ed
TTITLE3=King Pleasure - Parker's Mood
TTITLE4=King Pleasure, Eddie Jefferson, Three Riffs - I'm Gone
TTITLE5=King Pleasure, Blossom Dearie - I'm In The Mood For Love
TTITLE6=Dizzie Gillespie - She's Gone Again
TTITLE7=Eddie Jefferson - Workshop (ada Blues For A Debutante)
TTITLE8=Eddie Jefferson - I've Got The Blues
TTITLE9=Eddie Jefferson - Disappointed
TTITLE10=Annie Ross - Twisted
TTITLE11=Annie Ross - Farmer's Market
TTITLE12=Annie Ross - Jackie
TTITLE13=King Pleasure - Tomorrow Is Another Day
TTITLE14=Jon Hendricks - Moanin'
TTITLE15=Jon Hendricks - Along Came Betty
TTITLE16=Eddie Jefferson, Irv Taylor - Old Shoes
TTITLE17=Eddie Jefferson, Irv Taylor - Strictly Instrumental
TTITLE18=Eddie Jefferson, Irv Taylor - Start Walkin', Stop Talkin'
TTITLE19=Joe Carroll - Pennies From Heaven
TTITLE20=Joe Carroll - Two Wrongs Won't Make It Right
EXTD=
EXTT0=
EXTT1=
EXTT2=
EXTT3=
EXTT4=
EXTT5=
EXTT6=
EXTT7=
EXTT8=
EXTT9=
EXTT10=
EXTT11=
EXTT12=
EXTT13=
EXTT14=
EXTT15=
EXTT16=
EXTT17=
EXTT18=
EXTT19=
EXTT20=
PLAYORDER=
